<?xml version="1.0" encoding="UTF-8"?>
<svg width="900px" height="587px" viewBox="0 0 900 587" version="1.1" xmlns="http://www.w3.org/2000/svg" xmlns:xlink="http://www.w3.org/1999/xlink">
    <!-- Generator: Sketch 60.1 (88133) - https://sketch.com -->
    <title>Path</title>
    <desc>Created with Sketch.</desc>
    <g id="Icones" stroke="none" stroke-width="1" fill="none" fill-rule="evenodd">
        <g id="App-Store" transform="translate(-62.000000, -219.000000)" fill="#FFFFFF">
            <path d="M818.514858,249.494119 C822.663153,265.420528 825.119816,280.069487 842.457035,294.732414 C832.510982,305.885827 823.126415,317.256829 807.782671,326.255338 C791.533468,334.411575 775.698339,333.850048 760.502007,319.952157 C659.426926,236.66296 571.561834,206.207219 495.692443,223.803978 C410.585972,246.875876 345.434538,288.990648 306.562655,356.19889 C259.710033,442.127319 204.658203,539.896484 169.430632,559.536168 C134.203061,579.175852 62.0015425,585.939453 62.0015425,600.22023 C62.0015425,614.501007 142.989626,606.739878 180.464739,597.355288 C292.131618,547.175332 297.115308,427.492215 393.241994,371.956822 C402.458085,387.405924 414.509882,401.717967 434.226679,412.948465 C448.629893,436.062492 445.043123,459.176519 427.923529,482.29768 C410.151171,510.493534 388.441123,537.117038 360.154278,561.101422 C345.37908,566.829032 339.721673,581.653452 342.810074,605.23769 C342.810074,640.965099 342.810074,676.692584 342.810074,712.412896 C333.327283,713.795668 325.619141,725.015625 322.321299,734.488089 C319.023457,743.960554 317.962438,770.475217 318.369529,788.465251 C318.713464,803.542367 317.120129,804.61627 329.087711,794.845629 C331.305747,793.034693 333.474657,791.132505 335.594406,789.118018 C342.585427,782.491965 340.437593,781.579479 343.336492,790.795592 C344.087537,793.196137 344.90877,795.589653 345.77212,797.997216 C350.257329,810.5334 350.467896,806.693916 357.908137,794.845622 C366.618837,780.968795 372.964115,765.112562 381.078185,749.088041 C387.984987,735.442846 389.388816,737.681932 391.347148,721.783609 C394.751414,694.261587 393.719603,665.23743 392.933465,637.547081 C392.442129,620.041338 400.626401,614.089117 411.709546,601.187968 C441.807461,566.169498 483.149824,533.4672 535.105537,502.786548 C558.401933,485.414174 581.550767,467.99971 597.000094,448.661824 C609.416891,433.1074 614.295148,439.64225 636.061217,446.036668 C655.553255,451.757258 676.603592,450.248138 697.457143,449.19528 C698.467893,470.8493 695.905921,493.212146 686.416089,516.971995 C676.44195,522.236341 640.734751,525.181641 640.734751,542.163597 C640.734751,559.145554 675.38203,550.074267 684.836774,548.494956 C701.24041,539.875454 707.726079,526.110932 713.608058,512.241127 C723.820849,492.004948 737.655518,473.628885 754.19962,455.498573 C797.970711,437.318998 833.8876,417.06168 865.712178,384.184108 C897.536755,351.306536 916.221633,376.526234 925.992227,386.14947 C936.394521,386.795232 946.080895,384.984292 954.370462,378.274015 C966.717045,370.651218 962.52666,360.670009 952.791166,349.895642 C945.343904,342.92565 938.514299,335.632749 933.987,327.195766 C926.174738,312.624043 931.088109,312.280105 914.200139,301.000345 C909.03408,297.54693 902.766037,294.339184 894.47647,291.580662 C889.141935,288.429068 887.696015,285.277482 886.601053,282.125873 C898.224695,271.913032 907.714508,260.90001 910.929256,247.53556 C912.677014,240.284787 919.878609,238.277333 910.550225,240.839292 C901.603212,243.291311 889.612242,251.938886 874.577315,266.782017 L865.712181,266.353849 C849.502741,244.79107 835.97222,231.65824 825.120619,226.955358 C808.843218,219.901034 816.928548,243.415549 818.514858,249.494119 Z" id="Path"></path>
        </g>
    </g>
</svg>